<svg xmlns="http://www.w3.org/2000/svg" xmlns:svg="http://www.w3.org/2000/svg" id="svg2" width="501.333" height="501.333" version="1.1" viewBox="0 0 470 470"><metadata id="metadata7"/><g id="layer1" transform="translate(1979.9501,1471.448)"><circle id="path5042" cx="-659.63" cy="360.408" r="0" style="opacity:1;fill:#ffcc75;fill-opacity:1;fill-rule:evenodd;stroke:#082947;stroke-width:15;stroke-linejoin:round;stroke-miterlimit:4;stroke-dasharray:none;stroke-opacity:1"/><rect id="rect5102" width="454.122" height="196.583" x="-1969.811" y="-1205.547" rx="0" ry="0" style="opacity:1;fill:#ffcc75;fill-opacity:1;fill-rule:evenodd;stroke:#082947;stroke-width:12.70984364;stroke-linejoin:round;stroke-miterlimit:4;stroke-dasharray:none;stroke-opacity:1"/><path id="rect5104" d="m -1852.8035,-1291.4487 112.6256,-66.0785 110.8873,66.0785 0,0 0,282.485 0,0 -223.5129,0 0,0 0,-282.485 z" style="opacity:1;fill:#f2ebd9;fill-opacity:1;fill-rule:evenodd;stroke:#082947;stroke-width:12.70984364;stroke-linejoin:round;stroke-miterlimit:4;stroke-dasharray:none;stroke-opacity:1"/><rect id="rect5106" width="85.148" height="112.333" x="-1785.36" y="-1121.297" rx="0" ry="0" style="opacity:1;fill:#98d9d5;fill-opacity:1;fill-rule:evenodd;stroke:#082947;stroke-width:12.70984364;stroke-linejoin:round;stroke-miterlimit:4;stroke-dasharray:none;stroke-opacity:1"/><rect id="rect5108" width="49.67" height="44.603" x="-1811.135" y="-1281.537" rx="0" ry="0" style="opacity:1;fill:#6da8d6;fill-opacity:1;fill-rule:evenodd;stroke:#082947;stroke-width:12.70984364;stroke-linejoin:round;stroke-miterlimit:4;stroke-dasharray:none;stroke-opacity:1"/><rect style="opacity:1;fill:#6da8d6;fill-opacity:1;fill-rule:evenodd;stroke:#082947;stroke-width:12.70984364;stroke-linejoin:round;stroke-miterlimit:4;stroke-dasharray:none;stroke-opacity:1" id="rect5110" width="49.67" height="44.603" x="-1724.213" y="-1281.537" rx="0" ry="0"/><rect id="rect5112" width="49.67" height="44.603" x="-1810.248" y="-1205.547" rx="0" ry="0" style="opacity:1;fill:#6da8d6;fill-opacity:1;fill-rule:evenodd;stroke:#082947;stroke-width:12.70984364;stroke-linejoin:round;stroke-miterlimit:4;stroke-dasharray:none;stroke-opacity:1"/><rect style="opacity:1;fill:#6da8d6;fill-opacity:1;fill-rule:evenodd;stroke:#082947;stroke-width:12.70984364;stroke-linejoin:round;stroke-miterlimit:4;stroke-dasharray:none;stroke-opacity:1" id="rect5116" width="49.67" height="44.603" x="-1723.326" y="-1206.373" rx="0" ry="0"/><path style="opacity:1;fill:#f2484b;fill-opacity:1;fill-rule:evenodd;stroke:#082947;stroke-width:12.70984364;stroke-linejoin:round;stroke-miterlimit:4;stroke-dasharray:none;stroke-opacity:1" id="rect4238" d="m -1907.662,-1284.8722 167.0789,-96.8994 0.3931,24.0604 -155.7686,90.3398 0,0 -11.7034,-17.5008 z"/><path style="opacity:1;fill:#f2484b;fill-opacity:1;fill-rule:evenodd;stroke:#082947;stroke-width:12.70984364;stroke-linejoin:round;stroke-miterlimit:4;stroke-dasharray:none;stroke-opacity:1" id="rect4242" d="m -1571.582,-1285.4377 -168.8058,-96.3157 -0.1031,11.531 -0.036,4.109 0,0.3021 -0.034,3.9176 -0.033,3.7244 157.3123,90.2325 0,0 z"/><rect style="opacity:1;fill:#f2484b;fill-opacity:1;fill-rule:evenodd;stroke:#082947;stroke-width:11.86124325;stroke-linejoin:round;stroke-miterlimit:4;stroke-dasharray:none;stroke-opacity:1" id="rect4247" width=".272" height="80.279" x="-1740.741" y="-1461.759" rx="0" ry="0"/><rect style="opacity:1;fill:#98d9d5;fill-opacity:1;fill-rule:evenodd;stroke:#082947;stroke-width:12.70984364;stroke-linejoin:round;stroke-miterlimit:4;stroke-dasharray:none;stroke-opacity:1" id="rect4249" width="62.619" height="39.899" x="-1740.332" y="-1461.867" rx="0" ry="0"/><path style="opacity:1;fill:#f2484b;fill-opacity:1;fill-rule:evenodd;stroke:none;stroke-width:15;stroke-linejoin:round;stroke-miterlimit:4;stroke-dasharray:none;stroke-opacity:1" id="rect4251" d="m -1748.54,-1369.8523 7.9305,-5.0378 7.4153,4.4145 -0.1031,9.3033 -6.9465,-3.8662 -8.7081,5.2086 z"/><rect style="opacity:1;fill:#f2484b;fill-opacity:1;fill-rule:evenodd;stroke:#082947;stroke-width:12.70984364;stroke-linejoin:round;stroke-miterlimit:4;stroke-dasharray:none;stroke-opacity:1" id="rect4256" width="48.357" height="1.085" x="-1935.387" y="-1053.169" rx="0" ry="0"/><rect id="rect4258" width="48.357" height="1.085" x="-1935.97" y="-1091.148" rx="0" ry="0" style="opacity:1;fill:#f2484b;fill-opacity:1;fill-rule:evenodd;stroke:#082947;stroke-width:12.70984364;stroke-linejoin:round;stroke-miterlimit:4;stroke-dasharray:none;stroke-opacity:1"/><rect style="opacity:1;fill:#f2484b;fill-opacity:1;fill-rule:evenodd;stroke:#082947;stroke-width:12.70984364;stroke-linejoin:round;stroke-miterlimit:4;stroke-dasharray:none;stroke-opacity:1" id="rect4260" width="48.357" height="1.085" x="-1934.805" y="-1129.127" rx="0" ry="0"/><rect style="opacity:1;fill:#f2484b;fill-opacity:1;fill-rule:evenodd;stroke:#082947;stroke-width:13.27081966;stroke-linejoin:round;stroke-miterlimit:4;stroke-dasharray:none;stroke-opacity:1" id="rect4262" width="116.265" height="32.012" x="-1969.496" y="-1205.883" rx="0" ry="0"/><rect id="rect4268" width="113.125" height="32.157" x="-1628.877" y="-1205.189" rx="0" ry="0" style="opacity:1;fill:#f2484b;fill-opacity:1;fill-rule:evenodd;stroke:#082947;stroke-width:13.12011433;stroke-linejoin:round;stroke-miterlimit:4;stroke-dasharray:none;stroke-opacity:1"/><rect id="rect4270" width="48.357" height="1.085" x="-1595.993" y="-1052.382" rx="0" ry="0" style="opacity:1;fill:#f2484b;fill-opacity:1;fill-rule:evenodd;stroke:#082947;stroke-width:12.70984364;stroke-linejoin:round;stroke-miterlimit:4;stroke-dasharray:none;stroke-opacity:1"/><rect style="opacity:1;fill:#f2484b;fill-opacity:1;fill-rule:evenodd;stroke:#082947;stroke-width:12.70984364;stroke-linejoin:round;stroke-miterlimit:4;stroke-dasharray:none;stroke-opacity:1" id="rect4272" width="48.357" height="1.085" x="-1596.575" y="-1090.361" rx="0" ry="0"/><rect id="rect4274" width="48.357" height="1.085" x="-1595.41" y="-1128.34" rx="0" ry="0" style="opacity:1;fill:#f2484b;fill-opacity:1;fill-rule:evenodd;stroke:#082947;stroke-width:12.70984364;stroke-linejoin:round;stroke-miterlimit:4;stroke-dasharray:none;stroke-opacity:1"/><rect style="opacity:1;fill:#f2484b;fill-opacity:1;fill-rule:evenodd;stroke:#082947;stroke-width:11.60347652;stroke-linejoin:round;stroke-miterlimit:4;stroke-dasharray:none;stroke-opacity:1" id="rect4276" width="2.02" height="108.494" x="-1744.007" y="-1118.252" rx="0" ry="0"/></g></svg>